<?xml version="1.0" encoding="utf-8"?>
<!-- Generator: Adobe Illustrator 27.9.0, SVG Export Plug-In . SVG Version: 6.00 Build 0)  -->
<svg version="1.1" id="Layer_1" xmlns="http://www.w3.org/2000/svg" xmlns:xlink="http://www.w3.org/1999/xlink" x="0px" y="0px"
	 viewBox="0 0 159 32" style="enable-background:new 0 0 159 32;" xml:space="preserve">
<style type="text/css">
	.st0{fill-rule:evenodd;clip-rule:evenodd;fill:#FFFFFF;}
	.st1{fill-rule:evenodd;clip-rule:evenodd;fill:#C4C3AF;}
</style>
<path class="st0" d="M66.8,18.7c1.1,1,2.9,1.8,5.4,2.4l3.4,0.9c0,0,0,0,0,0c0.2-0.6,0.5-1.1,0.9-1.6c0.6-0.8,1.4-1.5,2.5-2.3
	c-0.7-0.2-1.5-0.4-2.3-0.6l-2.8-0.6c-1.4-0.3-2.4-0.7-3-1.1c-0.6-0.4-0.8-1-0.8-1.7c0-0.7,0.3-1.3,1-1.8c0.7-0.4,1.6-0.7,2.8-0.7
	c1.5,0,2.6,0.3,3.4,0.9c0.3,0.2,0.5,0.4,0.7,0.7c0-1.7,0.5-3.1,1.6-4.2C78,8.1,76.2,7.7,74,7.7c-2.7,0-4.8,0.6-6.4,1.9
	c-1.6,1.3-2.4,3-2.4,5.1C65.2,16.4,65.8,17.7,66.8,18.7z"/>
<path class="st0" d="M77.6,30.3c-0.8-0.8-1.5-1.7-1.9-2.7c-0.4,0-0.7,0.1-1.1,0.1c-1.7,0-3-0.3-3.8-1c-0.9-0.7-1.4-1.7-1.5-3.1h-4.6
	c0,2.5,0.8,4.5,2.5,5.9c1.7,1.4,4,2.1,7,2.1c1.7,0,3.1-0.2,4.4-0.6C78.2,30.8,77.9,30.5,77.6,30.3z"/>
<path class="st0" d="M4.9,0.3v11.1c1.4-2.2,3.8-3.4,6.9-3.4c4.9,0,7.7,2.5,7.7,7.1c0,0.3,0,1,0,2v13.9h-4.8V18V17
	c0-3.4-1.2-5.1-4.3-5.1c-3.2,0-5.5,2.1-5.5,5.6v13.3H0.1V0.3H4.9z"/>
<path class="st0" d="M29.1,21.2c-2.2,0.4-3.3,1.5-3.3,3.4c0,2,1.3,3.2,3.7,3.2c3.4,0,6.1-2.1,6.1-5.3v-2.8
	C33.6,20.7,31.3,20.7,29.1,21.2z M28.4,31.6c-4.6,0-7.2-2.6-7.2-6.6c0-5.3,3.5-6.8,9.5-7.5c4-0.5,5-0.6,5-2.6c0-2.2-1.5-3.1-4.6-3.1
	c-2.9,0-4.5,1.3-4.5,3.5v0.2H22V15c0-4.4,3.4-7.2,9.2-7.2c6,0,9,2.3,9,6.6v11.1c0,1.4,0.1,2.1,1.4,2.1c0.3,0,0.6,0,0.9-0.1V31
	c-0.8,0.2-1.6,0.3-2.4,0.3c-2.9,0-4.3-1.1-4.3-3.4C34,30.3,31.3,31.6,28.4,31.6z"/>
<path class="st0" d="M48.1,8.5v13.7c0,3.4,0.9,5.2,4.1,5.2c3.6,0,5.7-2.2,5.7-6.3V8.5h4.7v22.4H58v-3.1c-1.5,2.3-4,3.6-6.9,3.6
	c-3.1,0-5.3-0.9-6.6-2.8c-1.1-1.6-1.1-3.5-1.1-6V8.5H48.1z"/>
<path class="st0" d="M114.4,19.6c-5.7,0.7-8.4,2-8.4,5.4c0,3.2,2,5.1,5.6,5.1c2.5,0,4.8-0.8,6.3-2.2c1.9-1.7,2.2-3.4,2.2-6.4v-3.3
	C119.5,19.1,117.6,19.2,114.4,19.6z M123,31.2c-2.1,0-2.9-1.2-2.9-4c-1.7,2.7-4.9,4.3-8.9,4.3c-4,0-6.6-2.5-6.6-6.2
	c0-4.2,2.9-5.8,8.8-6.7c4.5-0.6,6.7-0.4,6.7-2.6v-1.9c0-3-2.1-4.6-6-4.6c-4.5,0-7.1,2-7.3,5.5h-1.3c0.2-4.1,3.3-6.7,8.4-6.7
	c3.1,0,5.3,0.9,6.5,2.6c0.9,1.3,0.9,2.7,0.9,4.6v0.9v9.8c0,2.7,0.3,3.8,2,3.8c0.3,0,0.5,0,0.8-0.1v1.1
	C123.7,31.1,123.3,31.2,123,31.2z"/>
<path class="st0" d="M140.1,30.9h-1.3v-3.4c-1.4,2.6-4,4-7.4,4c-5.1,0-7.6-2.6-7.6-7.9V8.9h1.3v14.3c0,4.9,1.7,7.1,6.2,7.1
	c2.5,0,4.4-0.7,5.7-2.2c1.7-1.9,1.8-4.2,1.8-7.3v-1.2V8.9h1.3V30.9z"/>
<path class="st0" d="M150.4,30.3c4,0,6.5-2,6.5-5c0-2.2-1.4-3.4-4.4-4.3c-3.6-0.9-6.3-1.5-8.1-2.9c-1.1-0.9-1.8-2.3-1.8-3.8
	c0-3.3,2.9-5.8,7.6-5.8c4.2,0,7.1,2.4,7.4,6.3h-1.3c-0.5-3.4-2.7-5.1-6.3-5.1s-6,1.9-6,4.5c0,3.4,2.7,4,7.2,5.1
	c4.8,1.2,7.1,2.5,7.1,6.1c0,3.6-3.2,6.3-7.9,6.3c-4.9,0-8-2.6-8.5-7.1h1.4C144.1,28.3,146.5,30.3,150.4,30.3z"/>
<path class="st1" d="M85.5,27.3c-0.5,0.1-1,0.2-1.5,0.2c-1,0-1.8-0.3-2.4-0.9c-0.6-0.6-1-1.3-1-2.2c0-0.7,0.2-1.3,0.6-1.9
	c0.4-0.5,1.1-1.1,2.2-1.8l2,2.4v-6.3l-0.8-1c-0.7-0.8-1.1-1.4-1.4-1.8c-0.3-0.4-0.4-0.9-0.4-1.2c0-0.5,0.2-1,0.5-1.3
	c0.4-0.3,0.9-0.5,1.5-0.5c0.2,0,0.4,0,0.5,0V7.8c-0.2,0-0.3,0-0.5,0c-1.9,0-3.3,0.5-4.4,1.5c-1.1,1-1.7,2.3-1.7,3.9
	c0,0.6,0.1,1.2,0.4,1.9c0.3,0.6,0.9,1.6,1.9,2.9c-1.8,1-3.1,2-3.9,3.1c-0.8,1-1.1,2.3-1.1,3.7c0,2,0.7,3.6,2.1,4.8
	c1.4,1.3,3.2,1.9,5.4,1.9c0.7,0,1.3-0.1,1.9-0.2V27.3z"/>
<path class="st1" d="M94.9,22.5c0.5-1.2,0.8-2.4,0.9-3.7h-4.1c-0.1,0.8-0.2,1.4-0.4,2.1c-0.2,0.6-0.5,1.3-0.8,1.8l-1.6-1.9v9.1
	c0.5-0.3,1-0.7,1.5-1.1l1.7,2h5.4L93,25.7C93.8,24.7,94.5,23.7,94.9,22.5z"/>
<path class="st0" d="M95.4,8.4c-2.8,0-5.1,1-6.6,2.8l-0.9,1V0.4h-1.4l0,30.6c0.2-0.1,0.4-0.1,0.6-0.2c0.3-0.1,0.5-0.2,0.8-0.3V19.1
	c0-3.3,0.1-5.4,1.8-7.3c1.3-1.5,3.2-2.2,5.7-2.2c4.4,0,6.2,2.1,6.2,7.1v14.2h1.4V16.3C102.9,11,100.5,8.4,95.4,8.4z"/>
</svg>
